<svg width="150" height="26" viewBox="0 0 150 26" fill="none" xmlns="http://www.w3.org/2000/svg">
<path d="M7.60808 21.192C8.31208 21.192 8.88808 21.1386 9.33608 21.032C9.80542 20.904 10.1787 20.744 10.4561 20.552C10.7334 20.3386 10.9254 20.0933 11.0321 19.816C11.1387 19.5386 11.1921 19.2293 11.1921 18.888C11.1921 18.1626 10.8507 17.5653 10.1681 17.096C9.48542 16.6053 8.31208 16.0826 6.64808 15.528C5.92275 15.272 5.19742 14.984 4.47208 14.664C3.74675 14.3226 3.09608 13.9066 2.52008 13.416C1.94408 12.904 1.47475 12.296 1.11208 11.592C0.749415 10.8666 0.568082 9.99197 0.568082 8.96797C0.568082 7.94397 0.760082 7.02664 1.14408 6.21597C1.52808 5.38397 2.07208 4.67997 2.77608 4.10397C3.48008 3.52797 4.33342 3.09064 5.33608 2.79197C6.33875 2.47197 7.46942 2.31197 8.72808 2.31197C10.2214 2.31197 11.5121 2.47197 12.6001 2.79197C13.6881 3.11197 14.5841 3.46397 15.2881 3.84797L13.8481 7.78397C13.2294 7.46397 12.5361 7.18664 11.7681 6.95197C11.0214 6.69597 10.1147 6.56797 9.04808 6.56797C7.85342 6.56797 6.98942 6.73864 6.45608 7.07997C5.94408 7.39997 5.68808 7.9013 5.68808 8.58397C5.68808 8.9893 5.78408 9.33064 5.97608 9.60797C6.16808 9.8853 6.43475 10.1413 6.77608 10.376C7.13875 10.5893 7.54408 10.792 7.99208 10.984C8.46142 11.1546 8.97342 11.336 9.52808 11.528C10.6801 11.9546 11.6827 12.3813 12.5361 12.808C13.3894 13.2133 14.0934 13.6933 14.6481 14.248C15.2241 14.8026 15.6508 15.4533 15.9281 16.2C16.2054 16.9466 16.3441 17.8533 16.3441 18.92C16.3441 20.9893 15.6188 22.6 14.1681 23.752C12.7174 24.8826 10.5307 25.448 7.60808 25.448C6.62675 25.448 5.74142 25.384 4.95208 25.256C4.16275 25.1493 3.45875 25.0106 2.84008 24.84C2.24275 24.6693 1.72008 24.488 1.27208 24.296C0.845415 24.104 0.482749 23.9226 0.184082 23.752L1.59208 19.784C2.25342 20.1466 3.06408 20.4773 4.02408 20.776C5.00542 21.0533 6.20008 21.192 7.60808 21.192Z" fill="black"/>
<path d="M19.0651 16.712C19.0651 15.2186 19.2891 13.9173 19.7371 12.808C20.2064 11.6773 20.8144 10.7386 21.5611 9.99197C22.3077 9.2453 23.1611 8.67997 24.1211 8.29597C25.1024 7.91197 26.1051 7.71997 27.1291 7.71997C29.5184 7.71997 31.4064 8.45597 32.7931 9.92797C34.1797 11.3786 34.8731 13.5226 34.8731 16.36C34.8731 16.6373 34.8624 16.9466 34.8411 17.288C34.8197 17.608 34.7984 17.896 34.7771 18.152H23.9611C24.0677 19.1333 24.5264 19.912 25.3371 20.488C26.1477 21.064 27.2357 21.352 28.6011 21.352C29.4757 21.352 30.3291 21.2773 31.1611 21.128C32.0144 20.9573 32.7077 20.7546 33.2411 20.52L33.8811 24.392C33.6251 24.52 33.2837 24.648 32.8571 24.776C32.4304 24.904 31.9504 25.0106 31.4171 25.096C30.9051 25.2026 30.3504 25.288 29.7531 25.352C29.1557 25.416 28.5584 25.448 27.9611 25.448C26.4464 25.448 25.1237 25.224 23.9931 24.776C22.8837 24.328 21.9557 23.72 21.2091 22.952C20.4837 22.1626 19.9397 21.2346 19.5771 20.168C19.2357 19.1013 19.0651 17.9493 19.0651 16.712ZM30.2651 14.888C30.2437 14.4826 30.1691 14.088 30.0411 13.704C29.9344 13.32 29.7531 12.9786 29.4971 12.68C29.2624 12.3813 28.9531 12.136 28.5691 11.944C28.2064 11.752 27.7477 11.656 27.1931 11.656C26.6597 11.656 26.2011 11.752 25.8171 11.944C25.4331 12.1146 25.1131 12.3493 24.8571 12.648C24.6011 12.9466 24.3984 13.2986 24.2491 13.704C24.1211 14.088 24.0251 14.4826 23.9611 14.888H30.2651Z" fill="black"/>
<path d="M44.9846 21.672C45.4539 21.672 45.9019 21.6613 46.3286 21.64C46.7552 21.6186 47.0966 21.5866 47.3526 21.544V17.928C47.1606 17.8853 46.8726 17.8426 46.4886 17.8C46.1046 17.7573 45.7526 17.736 45.4326 17.736C44.9846 17.736 44.5579 17.768 44.1526 17.832C43.7686 17.8746 43.4272 17.9706 43.1286 18.12C42.8299 18.2693 42.5952 18.472 42.4246 18.728C42.2539 18.984 42.1686 19.304 42.1686 19.688C42.1686 20.4346 42.4139 20.9573 42.9046 21.256C43.4166 21.5333 44.1099 21.672 44.9846 21.672ZM44.6006 7.71997C46.0086 7.71997 47.1819 7.87997 48.1206 8.19997C49.0592 8.51997 49.8059 8.97863 50.3606 9.57597C50.9366 10.1733 51.3419 10.8986 51.5766 11.752C51.8112 12.6053 51.9286 13.5546 51.9286 14.6V24.52C51.2459 24.6693 50.2966 24.84 49.0806 25.032C47.8646 25.2453 46.3926 25.352 44.6646 25.352C43.5766 25.352 42.5846 25.256 41.6886 25.064C40.8139 24.872 40.0566 24.5626 39.4166 24.136C38.7766 23.688 38.2859 23.112 37.9446 22.408C37.6032 21.704 37.4326 20.84 37.4326 19.816C37.4326 18.8346 37.6246 18.0026 38.0086 17.32C38.4139 16.6373 38.9472 16.0933 39.6086 15.688C40.2699 15.2826 41.0272 14.9946 41.8806 14.824C42.7339 14.632 43.6193 14.536 44.5366 14.536C45.1553 14.536 45.6992 14.568 46.1686 14.632C46.6592 14.6746 47.0539 14.7386 47.3526 14.824V14.376C47.3526 13.5653 47.1073 12.9146 46.6166 12.424C46.1259 11.9333 45.2726 11.688 44.0566 11.688C43.2459 11.688 42.4459 11.752 41.6566 11.88C40.8672 11.9866 40.1846 12.1466 39.6086 12.36L39.0006 8.51997C39.2779 8.43463 39.6192 8.3493 40.0246 8.26397C40.4512 8.1573 40.9099 8.07197 41.4006 8.00797C41.8912 7.92264 42.4033 7.85864 42.9366 7.81597C43.4912 7.75197 44.0459 7.71997 44.6006 7.71997Z" fill="black"/>
<path d="M66.3841 12.392C65.9574 12.2853 65.4561 12.1786 64.8801 12.072C64.3041 11.944 63.6854 11.88 63.0241 11.88C62.7254 11.88 62.3627 11.912 61.9361 11.976C61.5307 12.0186 61.2214 12.072 61.0081 12.136V25H56.2401V9.06397C57.0934 8.7653 58.0961 8.48797 59.2481 8.23197C60.4214 7.95464 61.7228 7.81597 63.1521 7.81597C63.4081 7.81597 63.7174 7.8373 64.0801 7.87997C64.4427 7.9013 64.8054 7.94397 65.1681 8.00797C65.5307 8.05063 65.8934 8.11463 66.2561 8.19997C66.6187 8.26397 66.9281 8.3493 67.1841 8.45597L66.3841 12.392Z" fill="black"/>
<path d="M68.6276 16.584C68.6276 15.368 68.8196 14.2266 69.2036 13.16C69.6089 12.072 70.1849 11.1333 70.9316 10.344C71.6782 9.5333 72.5849 8.8933 73.6516 8.42397C74.7182 7.95464 75.9342 7.71997 77.2996 7.71997C78.1956 7.71997 79.0169 7.8053 79.7636 7.97597C80.5102 8.1253 81.2356 8.3493 81.9396 8.64797L80.9476 12.456C80.4996 12.2853 80.0089 12.136 79.4756 12.008C78.9423 11.88 78.3449 11.816 77.6836 11.816C76.2756 11.816 75.2196 12.2533 74.5156 13.128C73.8329 14.0026 73.4916 15.1546 73.4916 16.584C73.4916 18.0986 73.8116 19.272 74.4516 20.104C75.1129 20.936 76.2542 21.352 77.8756 21.352C78.4516 21.352 79.0703 21.2986 79.7316 21.192C80.3929 21.0853 81.0009 20.9146 81.5556 20.68L82.2276 24.584C81.6729 24.8186 80.9796 25.0213 80.1476 25.192C79.3156 25.3626 78.3983 25.448 77.3956 25.448C75.8596 25.448 74.5369 25.224 73.4276 24.776C72.3182 24.3066 71.4009 23.6773 70.6756 22.888C69.9716 22.0986 69.4489 21.1706 69.1076 20.104C68.7876 19.016 68.6276 17.8426 68.6276 16.584Z" fill="black"/>
<path d="M85.4276 25V0.935968L90.1956 0.167969V8.23197C90.5156 8.1253 90.9209 8.0293 91.4116 7.94397C91.9236 7.8373 92.4143 7.78397 92.8836 7.78397C94.2489 7.78397 95.3796 7.97597 96.2756 8.35997C97.1929 8.72264 97.9183 9.2453 98.4516 9.92797C99.0062 10.6106 99.3903 11.4213 99.6036 12.36C99.8382 13.2986 99.9556 14.344 99.9556 15.496V25H95.1876V16.072C95.1876 14.536 94.9849 13.448 94.5796 12.808C94.1956 12.168 93.4702 11.848 92.4036 11.848C91.9769 11.848 91.5716 11.8906 91.1876 11.976C90.8249 12.04 90.4942 12.1146 90.1956 12.2V25H85.4276Z" fill="black"/>
<path d="M103.471 16.712C103.471 15.2186 103.695 13.9173 104.143 12.808C104.613 11.6773 105.221 10.7386 105.967 9.99197C106.714 9.2453 107.567 8.67997 108.527 8.29597C109.509 7.91197 110.511 7.71997 111.535 7.71997C113.925 7.71997 115.813 8.45597 117.199 9.92797C118.586 11.3786 119.279 13.5226 119.279 16.36C119.279 16.6373 119.269 16.9466 119.247 17.288C119.226 17.608 119.205 17.896 119.183 18.152H108.367C108.474 19.1333 108.933 19.912 109.743 20.488C110.554 21.064 111.642 21.352 113.007 21.352C113.882 21.352 114.735 21.2773 115.567 21.128C116.421 20.9573 117.114 20.7546 117.647 20.52L118.287 24.392C118.031 24.52 117.69 24.648 117.263 24.776C116.837 24.904 116.357 25.0106 115.823 25.096C115.311 25.2026 114.757 25.288 114.159 25.352C113.562 25.416 112.965 25.448 112.367 25.448C110.853 25.448 109.53 25.224 108.399 24.776C107.29 24.328 106.362 23.72 105.615 22.952C104.89 22.1626 104.346 21.2346 103.983 20.168C103.642 19.1013 103.471 17.9493 103.471 16.712ZM114.671 14.888C114.65 14.4826 114.575 14.088 114.447 13.704C114.341 13.32 114.159 12.9786 113.903 12.68C113.669 12.3813 113.359 12.136 112.975 11.944C112.613 11.752 112.154 11.656 111.599 11.656C111.066 11.656 110.607 11.752 110.223 11.944C109.839 12.1146 109.519 12.3493 109.263 12.648C109.007 12.9466 108.805 13.2986 108.655 13.704C108.527 14.088 108.431 14.4826 108.367 14.888H114.671Z" fill="black"/>
<path d="M133.103 12.392C132.676 12.2853 132.175 12.1786 131.599 12.072C131.023 11.944 130.404 11.88 129.743 11.88C129.444 11.88 129.081 11.912 128.655 11.976C128.249 12.0186 127.94 12.072 127.727 12.136V25H122.959V9.06397C123.812 8.7653 124.815 8.48797 125.967 8.23197C127.14 7.95464 128.441 7.81597 129.871 7.81597C130.127 7.81597 130.436 7.8373 130.799 7.87997C131.161 7.9013 131.524 7.94397 131.887 8.00797C132.249 8.05063 132.612 8.11463 132.975 8.19997C133.338 8.26397 133.647 8.3493 133.903 8.45597L133.103 12.392Z" fill="black"/>
<path d="M142.578 21.672C143.048 21.672 143.496 21.6613 143.922 21.64C144.349 21.6186 144.69 21.5866 144.946 21.544V17.928C144.754 17.8853 144.466 17.8426 144.082 17.8C143.698 17.7573 143.346 17.736 143.026 17.736C142.578 17.736 142.152 17.768 141.746 17.832C141.362 17.8746 141.021 17.9706 140.722 18.12C140.424 18.2693 140.189 18.472 140.018 18.728C139.848 18.984 139.762 19.304 139.762 19.688C139.762 20.4346 140.008 20.9573 140.498 21.256C141.01 21.5333 141.704 21.672 142.578 21.672ZM142.194 7.71997C143.602 7.71997 144.776 7.87997 145.714 8.19997C146.653 8.51997 147.4 8.97863 147.954 9.57597C148.53 10.1733 148.936 10.8986 149.17 11.752C149.405 12.6053 149.522 13.5546 149.522 14.6V24.52C148.84 24.6693 147.89 24.84 146.674 25.032C145.458 25.2453 143.986 25.352 142.258 25.352C141.17 25.352 140.178 25.256 139.282 25.064C138.408 24.872 137.65 24.5626 137.01 24.136C136.37 23.688 135.88 23.112 135.538 22.408C135.197 21.704 135.026 20.84 135.026 19.816C135.026 18.8346 135.218 18.0026 135.602 17.32C136.008 16.6373 136.541 16.0933 137.202 15.688C137.864 15.2826 138.621 14.9946 139.474 14.824C140.328 14.632 141.213 14.536 142.13 14.536C142.749 14.536 143.293 14.568 143.762 14.632C144.253 14.6746 144.648 14.7386 144.946 14.824V14.376C144.946 13.5653 144.701 12.9146 144.21 12.424C143.72 11.9333 142.866 11.688 141.65 11.688C140.84 11.688 140.04 11.752 139.25 11.88C138.461 11.9866 137.778 12.1466 137.202 12.36L136.594 8.51997C136.872 8.43463 137.213 8.3493 137.618 8.26397C138.045 8.1573 138.504 8.07197 138.994 8.00797C139.485 7.92264 139.997 7.85864 140.53 7.81597C141.085 7.75197 141.64 7.71997 142.194 7.71997Z" fill="black"/>
</svg>
