<svg width="150" height="26" viewBox="0 0 150 26" fill="none" xmlns="http://www.w3.org/2000/svg">
<path d="M7.424 21.384C8.128 21.384 8.704 21.3307 9.152 21.224C9.62133 21.096 9.99467 20.936 10.272 20.744C10.5493 20.5307 10.7413 20.2853 10.848 20.008C10.9547 19.7307 11.008 19.4213 11.008 19.08C11.008 18.3547 10.6667 17.7573 9.984 17.288C9.30133 16.7973 8.128 16.2747 6.464 15.72C5.73867 15.464 5.01333 15.176 4.288 14.856C3.56267 14.5147 2.912 14.0987 2.336 13.608C1.76 13.096 1.29067 12.488 0.928 11.784C0.565333 11.0587 0.384 10.184 0.384 9.16C0.384 8.136 0.576 7.21867 0.96 6.408C1.344 5.576 1.888 4.872 2.592 4.296C3.296 3.72 4.14933 3.28267 5.152 2.984C6.15467 2.664 7.28533 2.504 8.544 2.504C10.0373 2.504 11.328 2.664 12.416 2.984C13.504 3.304 14.4 3.656 15.104 4.04L13.664 7.976C13.0453 7.656 12.352 7.37867 11.584 7.144C10.8373 6.888 9.93067 6.76 8.864 6.76C7.66933 6.76 6.80533 6.93067 6.272 7.272C5.76 7.592 5.504 8.09333 5.504 8.776C5.504 9.18133 5.6 9.52267 5.792 9.8C5.984 10.0773 6.25067 10.3333 6.592 10.568C6.95467 10.7813 7.36 10.984 7.808 11.176C8.27733 11.3467 8.78933 11.528 9.344 11.72C10.496 12.1467 11.4987 12.5733 12.352 13C13.2053 13.4053 13.9093 13.8853 14.464 14.44C15.04 14.9947 15.4667 15.6453 15.744 16.392C16.0213 17.1387 16.16 18.0453 16.16 19.112C16.16 21.1813 15.4347 22.792 13.984 23.944C12.5333 25.0747 10.3467 25.64 7.424 25.64C6.44267 25.64 5.55733 25.576 4.768 25.448C3.97867 25.3413 3.27467 25.2027 2.656 25.032C2.05867 24.8613 1.536 24.68 1.088 24.488C0.661333 24.296 0.298667 24.1147 0 23.944L1.408 19.976C2.06933 20.3387 2.88 20.6693 3.84 20.968C4.82133 21.2453 6.016 21.384 7.424 21.384Z" fill="white"/>
<path d="M18.881 16.904C18.881 15.4107 19.105 14.1093 19.553 13C20.0223 11.8693 20.6303 10.9307 21.377 10.184C22.1237 9.43733 22.977 8.872 23.937 8.488C24.9183 8.104 25.921 7.912 26.945 7.912C29.3343 7.912 31.2223 8.648 32.609 10.12C33.9957 11.5707 34.689 13.7147 34.689 16.552C34.689 16.8293 34.6783 17.1387 34.657 17.48C34.6357 17.8 34.6143 18.088 34.593 18.344H23.777C23.8837 19.3253 24.3423 20.104 25.153 20.68C25.9637 21.256 27.0517 21.544 28.417 21.544C29.2917 21.544 30.145 21.4693 30.977 21.32C31.8303 21.1493 32.5237 20.9467 33.057 20.712L33.697 24.584C33.441 24.712 33.0997 24.84 32.673 24.968C32.2463 25.096 31.7663 25.2027 31.233 25.288C30.721 25.3947 30.1663 25.48 29.569 25.544C28.9717 25.608 28.3743 25.64 27.777 25.64C26.2623 25.64 24.9397 25.416 23.809 24.968C22.6997 24.52 21.7717 23.912 21.025 23.144C20.2997 22.3547 19.7557 21.4267 19.393 20.36C19.0517 19.2933 18.881 18.1413 18.881 16.904ZM30.081 15.08C30.0597 14.6747 29.985 14.28 29.857 13.896C29.7503 13.512 29.569 13.1707 29.313 12.872C29.0783 12.5733 28.769 12.328 28.385 12.136C28.0223 11.944 27.5637 11.848 27.009 11.848C26.4757 11.848 26.017 11.944 25.633 12.136C25.249 12.3067 24.929 12.5413 24.673 12.84C24.417 13.1387 24.2143 13.4907 24.065 13.896C23.937 14.28 23.841 14.6747 23.777 15.08H30.081Z" fill="white"/>
<path d="M44.8005 21.864C45.2698 21.864 45.7178 21.8533 46.1445 21.832C46.5712 21.8107 46.9125 21.7787 47.1685 21.736V18.12C46.9765 18.0773 46.6885 18.0347 46.3045 17.992C45.9205 17.9493 45.5685 17.928 45.2485 17.928C44.8005 17.928 44.3738 17.96 43.9685 18.024C43.5845 18.0667 43.2432 18.1627 42.9445 18.312C42.6458 18.4613 42.4112 18.664 42.2405 18.92C42.0698 19.176 41.9845 19.496 41.9845 19.88C41.9845 20.6267 42.2298 21.1493 42.7205 21.448C43.2325 21.7253 43.9258 21.864 44.8005 21.864ZM44.4165 7.912C45.8245 7.912 46.9978 8.072 47.9365 8.392C48.8752 8.712 49.6218 9.17067 50.1765 9.768C50.7525 10.3653 51.1578 11.0907 51.3925 11.944C51.6272 12.7973 51.7445 13.7467 51.7445 14.792V24.712C51.0618 24.8613 50.1125 25.032 48.8965 25.224C47.6805 25.4373 46.2085 25.544 44.4805 25.544C43.3925 25.544 42.4005 25.448 41.5045 25.256C40.6298 25.064 39.8725 24.7547 39.2325 24.328C38.5925 23.88 38.1018 23.304 37.7605 22.6C37.4192 21.896 37.2485 21.032 37.2485 20.008C37.2485 19.0267 37.4405 18.1947 37.8245 17.512C38.2298 16.8293 38.7632 16.2853 39.4245 15.88C40.0858 15.4747 40.8432 15.1867 41.6965 15.016C42.5498 14.824 43.4352 14.728 44.3525 14.728C44.9712 14.728 45.5152 14.76 45.9845 14.824C46.4752 14.8667 46.8698 14.9307 47.1685 15.016V14.568C47.1685 13.7573 46.9232 13.1067 46.4325 12.616C45.9418 12.1253 45.0885 11.88 43.8725 11.88C43.0618 11.88 42.2618 11.944 41.4725 12.072C40.6832 12.1787 40.0005 12.3387 39.4245 12.552L38.8165 8.712C39.0938 8.62667 39.4352 8.54133 39.8405 8.456C40.2672 8.34933 40.7258 8.264 41.2165 8.2C41.7072 8.11467 42.2192 8.05067 42.7525 8.008C43.3072 7.944 43.8618 7.912 44.4165 7.912Z" fill="white"/>
<path d="M66.2 12.584C65.7733 12.4773 65.272 12.3707 64.696 12.264C64.12 12.136 63.5013 12.072 62.84 12.072C62.5413 12.072 62.1787 12.104 61.752 12.168C61.3467 12.2107 61.0373 12.264 60.824 12.328V25.192H56.056V9.256C56.9093 8.95733 57.912 8.68 59.064 8.424C60.2373 8.14667 61.5387 8.008 62.968 8.008C63.224 8.008 63.5333 8.02933 63.896 8.072C64.2587 8.09333 64.6213 8.136 64.984 8.2C65.3467 8.24267 65.7093 8.30667 66.072 8.392C66.4347 8.456 66.744 8.54133 67 8.648L66.2 12.584Z" fill="white"/>
<path d="M68.4435 16.776C68.4435 15.56 68.6355 14.4187 69.0195 13.352C69.4248 12.264 70.0008 11.3253 70.7475 10.536C71.4942 9.72533 72.4008 9.08533 73.4675 8.616C74.5342 8.14667 75.7502 7.912 77.1155 7.912C78.0115 7.912 78.8328 7.99733 79.5795 8.168C80.3262 8.31733 81.0515 8.54133 81.7555 8.84L80.7635 12.648C80.3155 12.4773 79.8248 12.328 79.2915 12.2C78.7582 12.072 78.1608 12.008 77.4995 12.008C76.0915 12.008 75.0355 12.4453 74.3315 13.32C73.6488 14.1947 73.3075 15.3467 73.3075 16.776C73.3075 18.2907 73.6275 19.464 74.2675 20.296C74.9288 21.128 76.0702 21.544 77.6915 21.544C78.2675 21.544 78.8862 21.4907 79.5475 21.384C80.2088 21.2773 80.8168 21.1067 81.3715 20.872L82.0435 24.776C81.4888 25.0107 80.7955 25.2133 79.9635 25.384C79.1315 25.5547 78.2142 25.64 77.2115 25.64C75.6755 25.64 74.3528 25.416 73.2435 24.968C72.1342 24.4987 71.2168 23.8693 70.4915 23.08C69.7875 22.2907 69.2648 21.3627 68.9235 20.296C68.6035 19.208 68.4435 18.0347 68.4435 16.776Z" fill="white"/>
<path d="M85.2435 25.192V1.128L90.0115 0.360001V8.424C90.3315 8.31733 90.7368 8.22133 91.2275 8.136C91.7395 8.02933 92.2302 7.976 92.6995 7.976C94.0648 7.976 95.1955 8.168 96.0915 8.552C97.0088 8.91467 97.7342 9.43733 98.2675 10.12C98.8222 10.8027 99.2062 11.6133 99.4195 12.552C99.6542 13.4907 99.7715 14.536 99.7715 15.688V25.192H95.0035V16.264C95.0035 14.728 94.8008 13.64 94.3955 13C94.0115 12.36 93.2862 12.04 92.2195 12.04C91.7928 12.04 91.3875 12.0827 91.0035 12.168C90.6408 12.232 90.3102 12.3067 90.0115 12.392V25.192H85.2435Z" fill="white"/>
<path d="M103.287 16.904C103.287 15.4107 103.511 14.1093 103.959 13C104.429 11.8693 105.037 10.9307 105.783 10.184C106.53 9.43733 107.383 8.872 108.343 8.488C109.325 8.104 110.327 7.912 111.351 7.912C113.741 7.912 115.629 8.648 117.015 10.12C118.402 11.5707 119.095 13.7147 119.095 16.552C119.095 16.8293 119.085 17.1387 119.063 17.48C119.042 17.8 119.021 18.088 118.999 18.344H108.183C108.29 19.3253 108.749 20.104 109.559 20.68C110.37 21.256 111.458 21.544 112.823 21.544C113.698 21.544 114.551 21.4693 115.383 21.32C116.237 21.1493 116.93 20.9467 117.463 20.712L118.103 24.584C117.847 24.712 117.506 24.84 117.079 24.968C116.653 25.096 116.173 25.2027 115.639 25.288C115.127 25.3947 114.573 25.48 113.975 25.544C113.378 25.608 112.781 25.64 112.183 25.64C110.669 25.64 109.346 25.416 108.215 24.968C107.106 24.52 106.178 23.912 105.431 23.144C104.706 22.3547 104.162 21.4267 103.799 20.36C103.458 19.2933 103.287 18.1413 103.287 16.904ZM114.487 15.08C114.466 14.6747 114.391 14.28 114.263 13.896C114.157 13.512 113.975 13.1707 113.719 12.872C113.485 12.5733 113.175 12.328 112.791 12.136C112.429 11.944 111.97 11.848 111.415 11.848C110.882 11.848 110.423 11.944 110.039 12.136C109.655 12.3067 109.335 12.5413 109.079 12.84C108.823 13.1387 108.621 13.4907 108.471 13.896C108.343 14.28 108.247 14.6747 108.183 15.08H114.487Z" fill="white"/>
<path d="M132.919 12.584C132.492 12.4773 131.991 12.3707 131.415 12.264C130.839 12.136 130.22 12.072 129.559 12.072C129.26 12.072 128.897 12.104 128.471 12.168C128.065 12.2107 127.756 12.264 127.543 12.328V25.192H122.775V9.256C123.628 8.95733 124.631 8.68 125.783 8.424C126.956 8.14667 128.257 8.008 129.687 8.008C129.943 8.008 130.252 8.02933 130.615 8.072C130.977 8.09333 131.34 8.136 131.703 8.2C132.065 8.24267 132.428 8.30667 132.791 8.392C133.153 8.456 133.463 8.54133 133.719 8.648L132.919 12.584Z" fill="white"/>
<path d="M142.394 21.864C142.864 21.864 143.312 21.8533 143.738 21.832C144.165 21.8107 144.506 21.7787 144.762 21.736V18.12C144.57 18.0773 144.282 18.0347 143.898 17.992C143.514 17.9493 143.162 17.928 142.842 17.928C142.394 17.928 141.968 17.96 141.562 18.024C141.178 18.0667 140.837 18.1627 140.538 18.312C140.24 18.4613 140.005 18.664 139.834 18.92C139.664 19.176 139.578 19.496 139.578 19.88C139.578 20.6267 139.824 21.1493 140.314 21.448C140.826 21.7253 141.52 21.864 142.394 21.864ZM142.01 7.912C143.418 7.912 144.592 8.072 145.53 8.392C146.469 8.712 147.216 9.17067 147.77 9.768C148.346 10.3653 148.752 11.0907 148.986 11.944C149.221 12.7973 149.338 13.7467 149.338 14.792V24.712C148.656 24.8613 147.706 25.032 146.49 25.224C145.274 25.4373 143.802 25.544 142.074 25.544C140.986 25.544 139.994 25.448 139.098 25.256C138.224 25.064 137.466 24.7547 136.826 24.328C136.186 23.88 135.696 23.304 135.354 22.6C135.013 21.896 134.842 21.032 134.842 20.008C134.842 19.0267 135.034 18.1947 135.418 17.512C135.824 16.8293 136.357 16.2853 137.018 15.88C137.68 15.4747 138.437 15.1867 139.29 15.016C140.144 14.824 141.029 14.728 141.946 14.728C142.565 14.728 143.109 14.76 143.578 14.824C144.069 14.8667 144.464 14.9307 144.762 15.016V14.568C144.762 13.7573 144.517 13.1067 144.026 12.616C143.536 12.1253 142.682 11.88 141.466 11.88C140.656 11.88 139.856 11.944 139.066 12.072C138.277 12.1787 137.594 12.3387 137.018 12.552L136.41 8.712C136.688 8.62667 137.029 8.54133 137.434 8.456C137.861 8.34933 138.32 8.264 138.81 8.2C139.301 8.11467 139.813 8.05067 140.346 8.008C140.901 7.944 141.456 7.912 142.01 7.912Z" fill="white"/>
</svg>
